<svg xmlns="http://www.w3.org/2000/svg" width="13.887" height="13.887" viewBox="0 0 13.887 13.887">
  <path id="author-icon" d="M24.095,13.887H10.207a1.47,1.47,0,0,1,.233-.971A6.9,6.9,0,0,1,13.2,11.138a11.1,11.1,0,0,1,3.954-.851,11.1,11.1,0,0,1,3.954.851,6.906,6.906,0,0,1,2.757,1.778,1.515,1.515,0,0,1,.233.971ZM17.152,8.358a3.731,3.731,0,0,1-2.679-1.13A3.868,3.868,0,0,1,13.362,4.5V3.858a3.868,3.868,0,0,1,1.11-2.728,3.742,3.742,0,0,1,5.359,0,3.868,3.868,0,0,1,1.11,2.728V4.5a3.868,3.868,0,0,1-1.11,2.728A3.731,3.731,0,0,1,17.152,8.358Z" transform="translate(-10.207)" fill="#777"/>
</svg>
