<svg xmlns="http://www.w3.org/2000/svg" width="40.954" height="36.404" viewBox="0 0 40.954 36.404">
  <path id="icons8-jazz" d="M42.412,2.009,38,3.212a1.517,1.517,0,0,0-1.117,1.463V10.2c0,1.891-4.55.494-4.55,4.444a2.535,2.535,0,0,0,2.628,2.521c2.67,0,3.44-2.028,3.44-4.281V7.137L42.575,5.89a.472.472,0,0,0,.379-.462V2.453A.453.453,0,0,0,42.412,2.009ZM21.719,5.034c-4.188,0-7.584,1.019-7.584,2.275,0,.933,4.55,2.275,4.55,8.342V38.4h6.067V15.651c0-6.067,4.55-7.41,4.55-8.342C29.3,6.053,25.907,5.034,21.719,5.034ZM9.584,11.868a4.574,4.574,0,0,0-4.55,4.55v9.85A3.033,3.033,0,0,0,8.067,29.3h4.393a1.5,1.5,0,0,0,1.5-1.754A10.182,10.182,0,0,0,9.43,21.3c-1.23-.839-1.363-.694-1.363-2.619V16.419a1.517,1.517,0,1,1,3.034,0c0,.876-.486.83-.486.83a1.517,1.517,0,1,0,.972,2.874,4.29,4.29,0,0,0,2.548-3.7A4.574,4.574,0,0,0,9.584,11.868ZM2.758,18.694a.758.758,0,1,0,.758.758A.758.758,0,0,0,2.758,18.694ZM34.612,20.2c-2.932,0-5.309.68-5.309,1.517,0,.6,3.034,2.312,3.034,6.067h4.55c0-3.8,3.034-5.464,3.034-6.067C39.92,20.881,37.544,20.2,34.612,20.2ZM2.758,21.728a.758.758,0,1,0,.758.758A.758.758,0,0,0,2.758,21.728Zm0,3.034a.758.758,0,1,0,.758.758A.758.758,0,0,0,2.758,24.761Zm19.719,1.508a.758.758,0,1,1-.758.758A.759.759,0,0,1,22.477,26.269Zm0,3.034a.758.758,0,1,1-.758.758A.759.759,0,0,1,22.477,29.3Zm7.584,1.517a.758.758,0,1,0,.758.758A.758.758,0,0,0,30.061,30.82Zm2.275,0V38.4h4.55V30.82ZM6.55,32.336V38.4h6.067V32.336Zm15.927,0a.758.758,0,1,1-.758.758A.759.759,0,0,1,22.477,32.336Zm7.584,1.517a.758.758,0,1,0,.758.758A.758.758,0,0,0,30.061,33.853Zm0,3.034a.758.758,0,1,0,.758.758A.758.758,0,0,0,30.061,36.887Z" transform="translate(-2 -2)" fill="#353a5d" opacity="0.1"/>
</svg>
